<?xml version="1.0" encoding="UTF-8"?>
<svg id="Livello_2" data-name="Livello 2" xmlns="http://www.w3.org/2000/svg" viewBox="0 0 347.9 137.4">
  <defs>
    <style>
      .cls-1 {
        fill: #fff;
      }

      .cls-2 {
        fill: #a68bc0;
        font-family: Avenir-Heavy, Avenir;
        font-size: 36.22px;
        font-weight: 800;
      }
    </style>
  </defs>
  <g id="Livello_1-2" data-name="Livello 1">
    <g>
      <g>
        <path class="cls-1" d="m72.63,75.63c0,.53-.29,1.02-.77,1.27-9.32,4.81-19.69,7.22-31.14,7.22-5.95,0-11.42-.96-16.39-2.89-4.97-1.92-9.26-4.64-12.85-8.17-3.59-3.52-6.41-7.75-8.44-12.69-2.03-4.94-3.05-10.42-3.05-16.44s1.02-11.78,3.05-16.82c2.03-5.04,4.85-9.35,8.44-12.9,3.59-3.56,7.88-6.3,12.85-8.22,4.97-1.92,10.43-2.89,16.39-2.89s11.4.71,16.55,2.12c4.67,1.28,8.89,3.48,12.67,6.58.64.52.66,1.49.09,2.07l-8.09,8.18c-.52.52-1.36.58-1.91.1-2.28-1.98-4.95-3.54-8.03-4.68-3.52-1.31-7.24-1.96-11.16-1.96s-7.6.71-10.83,2.12c-3.23,1.42-6.01,3.38-8.33,5.88-2.32,2.5-4.12,5.43-5.39,8.77-1.27,3.34-1.91,6.93-1.91,10.78,0,4.14.63,7.95,1.91,11.43,1.27,3.48,3.07,6.5,5.39,9.04,2.32,2.54,5.1,4.54,8.33,5.99,3.23,1.45,6.84,2.18,10.83,2.18,3.48,0,6.77-.33,9.85-.98,2.77-.59,5.27-1.47,7.49-2.64.46-.24.74-.73.74-1.25v-15.93c0-.78-.63-1.42-1.42-1.42h-10.85c-.88.08-2.95-.07-.34-.95,6.29-2.13,24.91-11.47,24.91-11.47.78,0,1.42.63,1.42,1.42v37.14Z"/>
        <path class="cls-1" d="m120.32,74.97h-.33c-1.89,2.98-4.28,5.14-7.19,6.48-2.9,1.34-6.1,2.01-9.58,2.01-2.4,0-4.74-.33-7.02-.98-2.29-.65-4.32-1.63-6.1-2.94-1.78-1.31-3.21-2.94-4.3-4.9-1.09-1.96-1.63-4.25-1.63-6.86,0-2.83.51-5.24,1.52-7.24,1.02-2,2.38-3.67,4.08-5.01,1.71-1.34,3.68-2.41,5.93-3.21,2.25-.8,4.59-1.4,7.02-1.8,2.43-.4,4.88-.65,7.35-.76,2.47-.11,4.79-.16,6.97-.16h1.85c.78,0,1.42-.63,1.42-1.42h0c0-3.27-1.13-5.72-3.38-7.35-2.25-1.63-5.12-2.45-8.6-2.45-2.76,0-19.78-.4-19.78-.4-.58-.58-.54-1.51.06-2.07,2.65-2.44,5.69-4.23,9.1-5.38,3.88-1.31,7.89-1.96,12.03-1.96,3.7,0,6.82.42,9.36,1.25,2.54.84,4.64,1.91,6.32,3.21,1.67,1.31,2.96,2.81,3.87,4.52.91,1.71,1.56,3.43,1.96,5.17.4,1.74.63,3.43.71,5.06.07,1.63.11,3.07.11,4.3v28.64c0,.78-.63,1.42-1.42,1.42h-8.93c-.78,0-1.42-.63-1.42-1.42v-5.77Zm-.76-14.81c0-.78-.63-1.42-1.42-1.42h-1.31c-1.82,0-3.85.07-6.1.22-2.25.15-4.37.49-6.37,1.03-2,.54-3.69,1.34-5.06,2.4-1.38,1.05-2.07,2.52-2.07,4.41,0,1.24.27,2.27.82,3.1.54.83,1.25,1.54,2.12,2.12.87.58,1.85,1,2.94,1.25,1.09.26,2.18.38,3.27.38,4.5,0,7.82-1.07,9.96-3.21s3.21-5.06,3.21-8.77v-1.52Z"/>
        <path class="cls-1" d="m172.92,10.84c0-2.1.78-3.94,2.34-5.5s3.54-2.34,5.93-2.34,4.41.75,6.04,2.23c1.63,1.49,2.45,3.36,2.45,5.61s-.82,4.12-2.45,5.61c-1.63,1.49-3.65,2.23-6.04,2.23s-4.37-.78-5.93-2.34c-1.56-1.56-2.34-3.39-2.34-5.5Zm12.9,19.17c.85-.31,2,.04,2.01.67,0,0,0,0,0,.01v49.7c0,.98-1.24,1.77-2.78,1.77h-7.51c-1.53,0-2.78-.79-2.78-1.77v-45.87c0-.31.26-.6.69-.75l10.37-3.77Z"/>
        <path class="cls-1" d="m214.13.18c.85-.49,2,.07,2.01,1.05,0,0,0,.02,0,.02v78.13c0,1.53-1.24,2.78-2.78,2.78h-7.51c-1.53,0-2.78-1.24-2.78-2.78V7.28c0-.49.26-.94.69-1.18L214.13.18Z"/>
        <path class="cls-1" d="m243.28,60.6c-.89,0-1.57.81-1.39,1.68.65,3.12,2.08,5.61,4.31,7.46,2.61,2.18,5.77,3.27,9.47,3.27,3.27,0,22.22-.9,22.22-.9.67.5.74,1.46.19,2.09-2.79,3.16-5.87,5.45-9.23,6.87-3.78,1.6-7.73,2.4-11.87,2.4-3.92,0-7.62-.65-11.11-1.96s-6.5-3.16-9.04-5.55c-2.54-2.4-4.56-5.28-6.04-8.66-1.49-3.38-2.23-7.13-2.23-11.27s.74-7.89,2.23-11.27c1.49-3.38,3.5-6.26,6.04-8.66,2.54-2.4,5.55-4.25,9.04-5.55s7.19-1.96,11.11-1.96c3.63,0,6.95.64,9.96,1.91,3.01,1.27,5.59,3.1,7.73,5.5,2.14,2.4,3.81,5.35,5.01,8.87,1.2,3.52,1.8,7.57,1.8,12.14v2.18c0,.78-.63,1.42-1.42,1.42h-36.78Zm23.62-9.8c.84,0,1.5-.73,1.41-1.56-.33-3.12-1.5-5.63-3.5-7.54-2.32-2.21-5.55-3.32-9.69-3.32-3.92,0-7.02,1.13-9.31,3.38-1.93,1.9-3.22,4.34-3.89,7.31-.2.88.49,1.72,1.39,1.72h23.58Z"/>
        <path class="cls-1" d="m291.06,56.03c0-4.14.74-7.89,2.23-11.27,1.49-3.38,3.5-6.26,6.04-8.66,2.54-2.4,5.55-4.25,9.04-5.55s7.19-1.96,11.11-1.96,7.62.65,11.11,1.96,6.5,3.16,9.04,5.55c2.54,2.4,4.55,5.28,6.04,8.66,1.49,3.38,2.23,7.13,2.23,11.27s-.75,7.89-2.23,11.27c-1.49,3.38-3.5,6.26-6.04,8.66-2.54,2.4-5.55,4.25-9.04,5.55s-7.19,1.96-11.11,1.96-7.62-.65-11.11-1.96-6.5-3.16-9.04-5.55c-2.54-2.4-4.56-5.28-6.04-8.66-1.49-3.38-2.23-7.13-2.23-11.27Zm13.07,0c0,2.03.34,3.99,1.03,5.88.69,1.89,1.71,3.56,3.05,5.01,1.34,1.45,2.96,2.61,4.85,3.48,1.89.87,4.03,1.31,6.42,1.31s4.54-.44,6.42-1.31,3.5-2.03,4.85-3.48c1.34-1.45,2.36-3.12,3.05-5.01.69-1.89,1.04-3.85,1.04-5.88s-.35-3.99-1.04-5.88c-.69-1.89-1.71-3.56-3.05-5.01-1.34-1.45-2.96-2.61-4.85-3.48s-4.03-1.31-6.42-1.31-4.54.44-6.42,1.31c-1.89.87-3.5,2.03-4.85,3.48-1.34,1.45-2.36,3.12-3.05,5.01-.69,1.89-1.03,3.85-1.03,5.88Z"/>
      </g>
      <path class="cls-1" d="m158.56.18c.85-.49,2,.07,2.01,1.05,0,0,0,.02,0,.02v78.13c0,1.53-1.24,2.78-2.78,2.78h-7.51c-1.53,0-2.78-1.24-2.78-2.78V7.28c0-.49.26-.94.69-1.18L158.56.18Z"/>
    </g>
    <text class="cls-2" transform="translate(1.12 121.68)"><tspan x="0" y="0">Solar system</tspan></text>
  </g>
</svg>