<?xml version="1.0" encoding="UTF-8"?>
<svg id="Livello_2" data-name="Livello 2" xmlns="http://www.w3.org/2000/svg" xmlns:xlink="http://www.w3.org/1999/xlink" viewBox="0 0 314.46 314.46">
  <defs>
    <style>
      .cls-1 {
        fill: #fff;
      }

      .cls-2 {
        fill: #b3b2b2;
      }

      .cls-3 {
        fill: #2a2f69;
      }

      .cls-4 {
        fill: #3d3e3e;
      }

      .cls-5 {
        fill: #767676;
      }

      .cls-6 {
        fill: url(#Sfumatura_senza_nome_8);
      }

      .cls-7 {
        fill: none;
        opacity: .2;
      }
    </style>
    <linearGradient id="Sfumatura_senza_nome_8" data-name="Sfumatura senza nome 8" x1="157.23" y1="3.85" x2="157.23" y2="318.31" gradientUnits="userSpaceOnUse">
      <stop offset="0" stop-color="#2a2f69"/>
      <stop offset=".05" stop-color="#3f4377"/>
      <stop offset=".18" stop-color="#71749b"/>
      <stop offset=".31" stop-color="#9c9fb9"/>
      <stop offset=".45" stop-color="#c0c1d2"/>
      <stop offset=".58" stop-color="#dbdce6"/>
      <stop offset=".72" stop-color="#efeff4"/>
      <stop offset=".86" stop-color="#fbfbfc"/>
      <stop offset="1" stop-color="#fff"/>
    </linearGradient>
  </defs>
  <g id="Livello_1-2" data-name="Livello 1">
    <rect class="cls-6" width="314.46" height="314.46"/>
    <g>
      <path class="cls-3" d="m168.25,184.61c69.07-25.4,120.13-59.26,114.04-75.63s-67.01-9.05-136.08,16.34c-69.07,25.4-120.13,59.26-114.04,75.63,6.09,16.37,67.01,9.05,136.08-16.34Z"/>
      <path class="cls-3" d="m243.26,132.67c-20.32,12.69-48.21,26.14-79.88,37.79-29.21,10.74-56.94,18.24-79.72,22.1-2.32-5.05-4.19-10.41-5.51-16.03-2.96-12.59-2.95-25.2-.4-37.05,6.7-31.19,30.85-57.33,64.15-65.07,26.3-6.11,52.6.55,72.28,15.93,13.45,10.48,23.84,25.04,29.07,42.36v-.02Z"/>
      <path class="cls-3" d="m183.59,239.79c-13.28,3.49-26.83,3.08-39.39.46-15.35-3.22-16.91-17.78-1.22-23.81,7.27-2.79,22.39-9.11,45.67-20.3,40.51-19.48,51.24-32.87,56.51-39.04,4.15,35.87-20.96,71.98-61.57,82.7v-.02Z"/>
      <path class="cls-1" d="m143.06,102.88c-10.76,3.31-11.25,4.06-9.42,15.12-3.32-10.71-4.08-11.19-15.21-9.37,10.76-3.31,11.25-4.06,9.42-15.12,3.32,10.71,4.08,11.19,15.21,9.37Z"/>
      <path class="cls-1" d="m171.89,120.73c-10.76,3.31-11.25,4.06-9.42,15.12-3.32-10.71-4.08-11.19-15.21-9.37,10.76-3.31,11.25-4.06,9.42-15.12,3.32,10.71,4.08,11.19,15.21,9.37Z"/>
      <path class="cls-1" d="m210.88,109.87c-10.76,3.31-11.25,4.06-9.42,15.12-3.32-10.71-4.08-11.19-15.21-9.37,10.76-3.31,11.25-4.06,9.42-15.12,3.32,10.71,4.08,11.19,15.21,9.37Z"/>
      <path class="cls-1" d="m174.1,94.45c-6.35,1.95-6.65,2.4-5.56,8.94-1.96-6.32-2.41-6.61-8.99-5.53,6.36-1.95,6.65-2.4,5.56-8.94,1.96,6.32,2.41,6.61,8.99,5.53Z"/>
      <path class="cls-1" d="m189.97,137.99c-6.35,1.95-6.65,2.4-5.56,8.94-1.96-6.32-2.41-6.61-8.99-5.53,6.36-1.95,6.65-2.4,5.56-8.94,1.96,6.32,2.41,6.61,8.99,5.53Z"/>
      <path class="cls-1" d="m119.71,134.6c-8.63,2.65-9.01,3.25-7.54,12.11-2.67-8.58-3.27-8.96-12.18-7.5,8.63-2.65,9.01-3.25,7.54-12.11,2.67,8.58,3.27,8.96,12.18,7.5Z"/>
      <path class="cls-1" d="m145.23,149.44c-8.63,2.65-9.01,3.25-7.54,12.11-2.67-8.58-3.27-8.96-12.18-7.5,8.63-2.65,9.01-3.25,7.54-12.11,2.67,8.58,3.27,8.96,12.18,7.5Z"/>
      <g class="cls-7">
        <path class="cls-5" d="m233.68,203.66c-6.52,10.64-14,18.38-25.47,25.21-8.4,5.01-13.78,7.72-24.97,11.15-5.55-13.17-.23-29.38,13.38-38.09,12.45-7.96,27.1-5.62,37.06,1.73Z"/>
        <path class="cls-2" d="m215.86,214.74c3.02.02,5.58-2.45,5.71-5.51.13-3.06-2.21-5.55-5.23-5.57-3.02-.02-5.58,2.45-5.71,5.51-.13,3.06,2.21,5.55,5.23,5.57Z"/>
        <path class="cls-4" d="m215.9,213.89c2.56.02,4.73-2.07,4.84-4.66.11-2.59-1.87-4.7-4.43-4.72-2.56-.01-4.73,2.07-4.84,4.67-.11,2.59,1.87,4.7,4.43,4.72Z"/>
        <path class="cls-2" d="m199.22,219.87c1.75,0,3.24-1.42,3.31-3.19.08-1.77-1.28-3.21-3.04-3.22-1.75,0-3.24,1.42-3.32,3.19-.08,1.77,1.28,3.21,3.04,3.22Z"/>
        <path class="cls-4" d="m199.24,219.39c1.48,0,2.74-1.2,2.8-2.71.07-1.5-1.09-2.73-2.57-2.74-1.48,0-2.74,1.2-2.8,2.71-.06,1.5,1.09,2.73,2.57,2.74Z"/>
        <path class="cls-2" d="m208.92,224.65c2.15.01,3.98-1.75,4.07-3.94.09-2.19-1.57-3.97-3.73-3.98-2.15-.01-3.98,1.75-4.07,3.94-.09,2.18,1.57,3.97,3.73,3.98Z"/>
        <path class="cls-4" d="m208.94,224.05c1.83.01,3.37-1.49,3.45-3.34.08-1.86-1.34-3.37-3.16-3.38-1.83-.01-3.37,1.48-3.45,3.34-.08,1.86,1.34,3.37,3.16,3.38Z"/>
        <path class="cls-2" d="m195.85,235.65c3.19.02,5.89-2.59,6.03-5.82.14-3.23-2.33-5.86-5.52-5.88-3.19-.02-5.89,2.59-6.03,5.82-.14,3.23,2.33,5.86,5.52,5.88Z"/>
        <path class="cls-4" d="m195.88,234.76c2.7.02,4.99-2.19,5.11-4.93.12-2.74-1.98-4.97-4.68-4.99-2.7-.02-4.99,2.19-5.11,4.93-.12,2.74,1.98,4.97,4.68,4.99Z"/>
        <path class="cls-2" d="m204.66,213.15c1.1,0,2.03-.89,2.08-2,.05-1.11-.8-2.01-1.91-2.02-1.1,0-2.03.89-2.08,2-.05,1.11.81,2.01,1.91,2.02Z"/>
        <path class="cls-4" d="m204.67,212.84c.93,0,1.72-.75,1.76-1.69.04-.94-.68-1.7-1.62-1.71-.93,0-1.72.75-1.76,1.69-.04.94.68,1.7,1.62,1.71Z"/>
      </g>
    </g>
  </g>
</svg>