<svg width="180" height="122" viewBox="0 0 180 122" fill="none" xmlns="http://www.w3.org/2000/svg">
<g clip-path="url(#clip0_309_156)">
<path d="M97.8941 80.6269C147.406 62.4212 184.007 38.1493 179.645 26.4142C175.283 14.6791 131.609 19.9246 82.0967 38.1303C32.5847 56.3361 -4.01637 80.6079 0.34596 92.343C4.70829 104.078 48.3821 98.8326 97.8941 80.6269Z" fill="white"/>
<path d="M151.667 43.3925C137.099 52.4909 117.111 62.1296 94.4076 70.479C73.4693 78.1777 53.5928 83.5557 37.2594 86.3184C35.5928 82.6962 34.2594 78.853 33.3088 74.8256C31.1853 65.8009 31.1977 56.7639 33.0249 48.2671C37.8273 25.9078 55.136 7.17066 79.0125 1.62074C97.8644 -2.76272 116.716 2.01365 130.827 13.0398C140.469 20.5543 147.914 30.9911 151.667 43.4048V43.3925Z" fill="white"/>
<path d="M108.889 120.183C99.3702 122.688 89.6541 122.393 80.6541 120.514C69.6541 118.206 68.5307 107.769 79.7776 103.447C84.9875 101.446 95.827 96.9149 112.518 88.897C141.555 74.9362 149.247 65.3344 153.024 60.9141C156 86.6254 138 112.509 108.889 120.195V120.183Z" fill="white"/>
<g opacity="0.2">
<path d="M79.8399 22.0401C72.1238 24.4099 71.7781 24.9501 73.0868 32.8821C70.7041 25.208 70.1609 24.8642 62.1855 26.1657C69.9016 23.796 70.2473 23.2557 68.9386 15.3237C71.3214 22.9978 71.8646 23.3416 79.8399 22.0401Z" fill="#767676"/>
</g>
<g opacity="0.2">
<path d="M100.506 34.8343C92.7898 37.2041 92.4442 37.7443 93.7528 45.6763C91.3701 38.0022 90.8269 37.6584 82.8516 38.9599C90.5676 36.5901 90.9133 36.0499 89.6047 28.1179C91.9874 35.792 92.5306 36.1358 100.506 34.8343Z" fill="#767676"/>
</g>
<g opacity="0.2">
<path d="M128.457 27.0496C120.741 29.4194 120.395 29.9597 121.704 37.8916C119.321 30.2175 118.778 29.8737 110.803 31.1752C118.519 28.8055 118.864 28.2652 117.556 20.3333C119.939 28.0074 120.482 28.3512 128.457 27.0496Z" fill="#767676"/>
</g>
<g opacity="0.2">
<path d="M102.086 15.9989C97.5308 17.3987 97.321 17.7179 98.0987 22.4084C96.6913 17.8776 96.3703 17.6688 91.6543 18.4424C96.2099 17.0426 96.4197 16.7234 95.642 12.033C97.0494 16.5638 97.3704 16.7725 102.086 15.9989Z" fill="#767676"/>
</g>
<g opacity="0.2">
<path d="M113.469 47.2111C108.914 48.6109 108.704 48.9301 109.482 53.6205C108.074 49.0897 107.753 48.881 103.037 49.6545C107.593 48.2548 107.803 47.9355 107.025 43.2451C108.432 47.7759 108.753 47.9846 113.469 47.2111Z" fill="#767676"/>
</g>
<g opacity="0.2">
<path d="M63.0987 44.7799C56.9135 46.6831 56.6419 47.1128 57.6913 53.4608C55.7777 47.3093 55.3456 47.0391 48.9629 48.0828C55.1481 46.1796 55.4197 45.7499 54.3703 39.4019C56.2839 45.5534 56.716 45.8236 63.0987 44.7799Z" fill="#767676"/>
</g>
<g opacity="0.2">
<path d="M81.3946 55.4132C75.2094 57.3164 74.9378 57.7461 75.9872 64.0941C74.0736 57.9426 73.6415 57.6724 67.2588 58.7161C73.444 56.8129 73.7156 56.3832 72.6662 50.0352C74.5798 56.1867 75.0119 56.4569 81.3946 55.4132Z" fill="#767676"/>
</g>
<g opacity="0.2">
<path d="M144.797 94.2794C140.12 101.904 134.761 107.455 126.54 112.352C120.52 115.944 116.665 117.884 108.642 120.344C104.664 110.901 108.476 99.2827 118.232 93.0367C127.156 87.3319 137.658 89.0071 144.797 94.2794Z" fill="#767676"/>
<path d="M132.028 102.223C134.195 102.235 136.028 100.466 136.123 98.273C136.217 96.0795 134.538 94.2916 132.371 94.2795C130.204 94.2674 128.37 96.0357 128.276 98.2291C128.181 100.423 129.861 102.211 132.028 102.223Z" fill="#B2B2B2"/>
<path d="M132.054 101.614C133.889 101.625 135.442 100.127 135.522 98.2702C135.603 96.413 134.18 94.8992 132.345 94.8889C130.509 94.8787 128.956 96.3759 128.876 98.233C128.796 100.09 130.219 101.604 132.054 101.614Z" fill="#3D3D3D"/>
<path d="M120.093 105.904C121.351 105.911 122.415 104.888 122.469 103.62C122.524 102.351 121.549 101.317 120.291 101.31C119.033 101.303 117.969 102.326 117.914 103.594C117.86 104.863 118.835 105.897 120.093 105.904Z" fill="#B2B2B2"/>
<path d="M120.108 105.559C121.172 105.565 122.072 104.696 122.118 103.618C122.165 102.54 121.34 101.661 120.277 101.655C119.214 101.649 118.314 102.518 118.267 103.596C118.221 104.674 119.045 105.553 120.108 105.559Z" fill="#3D3D3D"/>
<path d="M127.047 109.328C128.591 109.337 129.897 108.074 129.965 106.507C130.032 104.94 128.836 103.663 127.292 103.655C125.748 103.646 124.442 104.909 124.375 106.476C124.307 108.042 125.503 109.32 127.047 109.328Z" fill="#B2B2B2"/>
<path d="M127.066 108.899C128.375 108.907 129.483 107.834 129.541 106.505C129.598 105.175 128.583 104.091 127.274 104.084C125.965 104.076 124.857 105.148 124.799 106.478C124.742 107.808 125.757 108.892 127.066 108.899Z" fill="#3D3D3D"/>
<path d="M117.677 117.214C119.964 117.227 121.899 115.36 121.999 113.044C122.099 110.729 120.326 108.841 118.039 108.828C115.752 108.816 113.817 110.682 113.717 112.998C113.617 115.314 115.39 117.201 117.677 117.214Z" fill="#B2B2B2"/>
<path d="M117.704 116.578C119.642 116.589 121.282 115.005 121.367 113.041C121.452 111.077 119.95 109.476 118.011 109.465C116.073 109.454 114.433 111.038 114.348 113.002C114.264 114.966 115.766 116.567 117.704 116.578Z" fill="#3D3D3D"/>
<path d="M123.996 101.088C124.785 101.093 125.452 100.452 125.486 99.6566C125.521 98.8615 124.909 98.2133 124.12 98.2089C123.331 98.2045 122.664 98.8455 122.629 99.6406C122.595 100.436 123.207 101.084 123.996 101.088Z" fill="#B2B2B2"/>
<path d="M124.004 100.866C124.673 100.87 125.239 100.328 125.268 99.6548C125.297 98.982 124.779 98.4336 124.11 98.4299C123.441 98.4261 122.875 98.9685 122.846 99.6413C122.817 100.314 123.335 100.863 124.004 100.866Z" fill="#3D3D3D"/>
</g>
</g>
<defs>
<clipPath id="clip0_309_156">
<rect width="180" height="122" fill="white"/>
</clipPath>
</defs>
</svg>
